<?xml version="1.0" standalone="no"?>
<!DOCTYPE svg PUBLIC "-//W3C//DTD SVG 20010904//EN"
 "http://www.w3.org/TR/2001/REC-SVG-20010904/DTD/svg10.dtd">
<svg version="1.0" xmlns="http://www.w3.org/2000/svg"
 width="1207.000000pt" height="1280.000000pt" viewBox="0 0 1207.000000 1280.000000"
 preserveAspectRatio="xMidYMid meet">
<metadata>
Created by potrace 1.15, written by Peter Selinger 2001-2017
</metadata>
<g transform="translate(0.000000,1280.000000) scale(0.100000,-0.100000)"
fill="#000000" stroke="none">
<path d="M1710 12789 c-728 -75 -1339 -549 -1591 -1234 -60 -163 -94 -326
-109 -530 -13 -189 -14 -8289 0 -8500 18 -269 76 -496 184 -722 190 -393 519
-715 918 -897 134 -61 308 -113 493 -148 57 -11 873 -13 4430 -13 4148 0 4365
1 4457 18 203 37 331 79 513 167 375 181 677 481 861 855 115 234 174 456 193
726 14 193 15 8295 1 8498 -17 242 -54 409 -139 621 -91 228 -219 419 -411
610 -137 137 -249 224 -402 313 -176 101 -422 186 -643 223 -106 18 -281 19
-4390 20 -2386 1 -4318 -2 -4365 -7z"/>
</g>
</svg>
